<?xml version="1.0" encoding="UTF-8"?>
<svg viewBox="949 305 918 918" version="1.1" xmlns="http://www.w3.org/2000/svg" width="918" height="918">
<path d="M0 0 C0.99 0.66 1.98 1.32 3 2 C3 2.66 3 3.32 3 4 C3.53496094 4.22558594 4.06992188 4.45117188 4.62109375 4.68359375 C7.77067814 6.42646721 10.35998872 8.71207223 13.0625 11.0625 C14.22328392 12.05937959 15.38475344 13.05546135 16.546875 14.05078125 C17.12630859 14.54787598 17.70574219 15.0449707 18.30273438 15.55712891 C20.77544958 17.65922138 23.29242693 19.70508037 25.8125 21.75 C29.58711311 24.8219795 33.27142266 27.96897435 36.9140625 31.1953125 C39.35844775 33.31011771 41.86277668 35.3412954 44.375 37.375 C48.84630223 41.01141177 53.16465353 44.7757428 57.41796875 48.6640625 C58.84286287 49.95314976 60.27413712 51.23567055 61.73120117 52.48828125 C67.37361676 57.34099903 72.67863446 62.48615589 77.9375 67.75 C79.26527466 69.07898315 79.26527466 69.07898315 80.61987305 70.43481445 C86.49150358 76.36187361 91.96551995 82.34039433 97 89 C97.58136719 89.71414063 98.16273438 90.42828125 98.76171875 91.1640625 C106.66494561 100.93209569 112.94724217 111.6139247 118.8125 122.6875 C119.26850586 123.54182617 119.72451172 124.39615234 120.19433594 125.27636719 C122.94640568 130.56756096 125.17325801 135.88232499 127.11206055 141.52294922 C127.96229384 143.89481256 128.94397843 146.15130975 130 148.4375 C135.08584729 161.37411949 136.35679152 174.76229215 136.375 188.5625 C136.37661133 189.72700684 136.37822266 190.89151367 136.37988281 192.09130859 C136.24902519 202.25312974 134.6141283 211.72667965 131.6875 221.4375 C131.35939331 222.53396851 131.35939331 222.53396851 131.0246582 223.65258789 C128.87304197 230.67523491 126.12423639 237.33638172 123.08056641 244.01855469 C113.24446896 265.61468061 104.54063767 288.41517346 112.0625 312.3125 C116.80719024 324.30191557 124.60046151 335.2448034 134.8125 343.1875 C135.534375 343.785625 136.25625 344.38375 137 345 C137 345.66 137 346.32 137 347 C137.99 347 138.98 347 140 347 C140 347.66 140 348.32 140 349 C140.51691406 349.23589844 141.03382813 349.47179687 141.56640625 349.71484375 C144.83889565 351.44301231 147.8720979 353.49751874 150.9375 355.5625 C151.59991699 356.00722656 152.26233398 356.45195313 152.94482422 356.91015625 C154.96562308 358.26991003 156.98322719 359.63428372 159 361 C159.58056152 361.39171387 160.16112305 361.78342773 160.75927734 362.18701172 C172.64080891 370.22112359 183.84190301 378.66804727 194.296875 388.484375 C196.50616012 390.54041491 198.74998383 392.50100272 201.0625 394.4375 C214.79481456 406.40707439 225.57763951 421.53253156 235 437 C235.65613281 438.07507813 236.31226563 439.15015625 236.98828125 440.2578125 C265.77501787 489.06258039 276.32798959 547.16316583 266 603 C265.76825431 604.39301733 265.53772258 605.78623735 265.30859375 607.1796875 C263.70704385 616.13006352 261.01981784 624.44883265 258 633 C257.51735003 634.49888282 257.03762573 635.99871514 256.5625 637.5 C256.05121733 639.00328221 255.5292373 640.50294448 255 642 C254.6390625 643.02480469 254.278125 644.04960938 253.90625 645.10546875 C250.86632297 653.20899517 247.14055544 660.77410046 243 668.375 C242.50185791 669.28983154 242.00371582 670.20466309 241.49047852 671.1472168 C238.26497488 676.96580346 234.77896383 682.52643355 231 688 C230.59346191 688.59538574 230.18692383 689.19077148 229.76806641 689.80419922 C223.67974358 698.66251586 217.09819581 706.93717116 210 715 C209.52933105 715.53915039 209.05866211 716.07830078 208.57373047 716.63378906 C202.58852056 723.47226662 202.58852056 723.47226662 200 726 C199.34 726 198.68 726 198 726 C197.75894531 726.57492187 197.51789063 727.14984375 197.26953125 727.7421875 C186.74220382 746.46463444 155.75214321 760.94820421 138 771 C137.35160156 771.36738281 136.70320313 771.73476562 136.03515625 772.11328125 C113.24771029 784.23001947 84.37964349 792.77095972 58.58984375 793.82421875 C56.01513684 793.83175714 56.01513684 793.83175714 54 795 C51.13382862 795.1242315 48.29304953 795.1880725 45.42578125 795.203125 C44.55804077 795.21004868 43.69030029 795.21697235 42.79626465 795.22410583 C39.96829796 795.24150585 37.1405179 795.24770755 34.3125 795.25 C33.35515961 795.25133942 32.39781921 795.25267883 31.41146851 795.25405884 C17.02547278 795.249673 3.17389915 794.63148128 -11 792 C-12.91039062 791.69255859 -12.91039062 791.69255859 -14.859375 791.37890625 C-22.82609134 789.97864279 -30.54557632 787.79831632 -38.3125 785.5625 C-39.31531006 785.27407227 -40.31812012 784.98564453 -41.35131836 784.68847656 C-50.07777264 782.10831807 -58.37741976 778.8419108 -66.625 775 C-67.64851563 774.525625 -68.67203125 774.05125 -69.7265625 773.5625 C-91.09463828 763.36294115 -110.81306633 750.10332223 -128.46630859 734.33642578 C-130.07383353 732.93566305 -131.7296615 731.60914216 -133.39453125 730.27734375 C-134.25433594 729.52582031 -135.11414062 728.77429687 -136 728 C-136 727.34 -136 726.68 -136 726 C-136.55558594 725.77828125 -137.11117188 725.5565625 -137.68359375 725.328125 C-147.00955096 719.98103318 -154.36974397 707.98354117 -160.83544922 699.52001953 C-161.82925358 698.22286524 -162.83704141 696.93644421 -163.84765625 695.65234375 C-166.81929572 691.82949298 -169.24955771 687.93008956 -171.52734375 683.66015625 C-173.0091575 680.98345819 -174.59512768 678.38411137 -176.20263672 675.78149414 C-181.12218469 667.78133793 -185.29185057 659.62533119 -189 651 C-189.39614502 650.07985107 -189.39614502 650.07985107 -189.80029297 649.14111328 C-212.21397791 596.45439932 -213.61453739 533.60915509 -193 480 C-191.60562043 476.79399896 -190.10972658 473.63916316 -188.59106445 470.49047852 C-186.17139719 465.46187048 -184.13169401 460.34440948 -182.18359375 455.11328125 C-181.01378348 452.03625557 -179.74080313 449.02255406 -178.4375 446 C-177.62153814 444.00140987 -176.80897613 442.00142796 -176 440 C-175.60296875 439.10023438 -175.2059375 438.20046875 -174.796875 437.2734375 C-167.11085201 417.19234926 -172.1116126 395.72720627 -180.01171875 376.72314453 C-190.407366 351.63736564 -192.23288476 327.29872339 -182.37890625 301.671875 C-180.90811533 298.82195719 -179.46904057 297.03612594 -177 295 C-173.29241009 294.38206835 -171.7064798 294.49802751 -168.625 296.6875 C-167 299 -167 299 -166.5 301.1875 C-166.97066903 303.8350133 -167.65159799 305.48596227 -168.8125 307.875 C-175.94484542 323.2818814 -176.22424823 342.9909303 -171 359 C-170.13077211 361.14023223 -169.1768998 363.20943425 -168.171875 365.2890625 C-166.19429576 369.86386248 -164.73092805 374.61655283 -163.1940918 379.35424805 C-162.00478535 383.01294807 -160.77643474 386.63316798 -159.390625 390.22265625 C-151.16914791 411.91205254 -156.91471044 436.03004583 -166.07836914 456.39672852 C-166.68926392 457.72788696 -166.68926392 457.72788696 -167.3125 459.0859375 C-170.22271239 465.43053521 -172.91278373 471.85542444 -175.5625 478.3125 C-176.26536133 479.99375977 -176.26536133 479.99375977 -176.98242188 481.70898438 C-181.90403123 493.70669782 -185.22758662 505.89407744 -187.625 518.625 C-187.83664795 519.74817627 -188.0482959 520.87135254 -188.26635742 522.02856445 C-197.77196755 574.02680094 -188.68275091 630.23722923 -159.1875 674.734375 C-157.48731798 677.17838665 -155.74557065 679.58830354 -154 682 C-153.47019531 682.78503906 -152.94039062 683.57007813 -152.39453125 684.37890625 C-148.17544054 690.62235878 -143.46448225 696.3213715 -138.55078125 702.01953125 C-136.95247846 703.8870734 -135.38656962 705.78338999 -133.87109375 707.71875 C-132.25472198 709.68944126 -130.76482218 711.15603163 -128.75 712.6875 C-127.8425 713.450625 -126.935 714.21375 -126 715 C-126 715.66 -126 716.32 -126 717 C-125.34 717 -124.68 717 -124 717 C-124 717.66 -124 718.32 -124 719 C-123.15695312 719.35964844 -123.15695312 719.35964844 -122.296875 719.7265625 C-119.51099828 721.2711132 -117.54949163 723.16834499 -115.25 725.375 C-105.81140843 734.09241232 -95.52504943 742.23747529 -84 748 C-84 748.66 -84 749.32 -84 750 C-83.27039062 750.10828125 -82.54078125 750.2165625 -81.7890625 750.328125 C-78.8127611 751.04510517 -76.93279598 752.09042669 -74.375 753.75 C-69.10774398 757.01663652 -63.6976293 759.5770604 -58 762 C-57.24589844 762.32613281 -56.49179688 762.65226562 -55.71484375 762.98828125 C-28.6263589 774.27902193 0.15229035 780.46939476 29.5 780.3125 C30.23434265 780.31034485 30.9686853 780.3081897 31.72528076 780.30596924 C62.90052366 780.16034953 96.10861753 774.57798958 124 760 C125.30809434 759.35311512 126.61800082 758.70988181 127.9296875 758.0703125 C135.49072836 754.35263537 142.907304 750.56710692 150 746 C150.58168945 745.62584961 151.16337891 745.25169922 151.76269531 744.86621094 C158.88439264 740.26355764 165.63705551 735.62306722 172 730 C172.66 730 173.32 730 174 730 C174 729.34 174 728.68 174 728 C175.4609375 726.4921875 175.4609375 726.4921875 177.375 724.875 C178.00148438 724.33617187 178.62796875 723.79734375 179.2734375 723.2421875 C181 722 181 722 183 722 C183 721.34 183 720.68 183 720 C183.66 720 184.32 720 185 720 C185 719.34 185 718.68 185 718 C186.36328125 716.6953125 186.36328125 716.6953125 188.3125 715.125 C196.61981522 708.04021521 203.7578227 699.94382582 209.66015625 690.765625 C210.10230469 690.18296875 210.54445313 689.6003125 211 689 C211.66 689 212.32 689 213 689 C213.38285156 687.93072266 213.38285156 687.93072266 213.7734375 686.83984375 C215.09661353 683.77631198 216.71900014 681.30000179 218.625 678.5625 C228.06117678 664.61336911 235.20177379 649.88805112 241.25 634.1875 C241.59160156 633.30376709 241.93320313 632.42003418 242.28515625 631.50952148 C244.22560749 626.38056483 245.76908702 621.34328134 247 616 C247.38671875 614.48792969 247.38671875 614.48792969 247.78125 612.9453125 C250.26266273 603.20846472 252.16042291 593.93569362 252.75390625 583.8828125 C253 581 253 581 253.50268555 579.25146484 C254.76443618 573.53920939 254.2453025 567.34273968 254.25 561.5 C254.25067474 560.75258545 254.25134949 560.0051709 254.25204468 559.23510742 C254.2361166 548.13249425 253.69535922 537.44041458 251.50048828 526.52734375 C250.93482769 523.67089572 250.43450518 520.80599012 249.93359375 517.9375 C244.47946376 487.6729693 232.60935252 457.6965239 214 433 C213.44828125 432.2678125 212.8965625 431.535625 212.328125 430.78125 C210.57711517 428.50011793 208.79037565 426.25032354 207 424 C206.40316406 423.21625 205.80632812 422.4325 205.19140625 421.625 C190.17783961 402.42636507 171.87469037 388.2684489 151.87548828 374.72460938 C145.02929405 370.07351737 138.48324852 365.14402755 132 360 C131.10925781 359.31421875 130.21851563 358.6284375 129.30078125 357.921875 C111.86993379 344.36158325 98.20985655 326.37302688 95 304 C94.69727339 300.32792626 94.6187026 296.68366648 94.625 293 C94.62661133 292.00395752 94.62822266 291.00791504 94.62988281 289.98168945 C94.946901 270.53013743 102.37940586 254.32998851 109.93359375 236.72070312 C117.42064229 219.14376785 122.08013758 203.26621971 121 184 C120.94416748 182.93676514 120.94416748 182.93676514 120.88720703 181.85205078 C119.90204356 165.65278775 115.26548079 150.48834878 108 136 C107.48824219 134.9171875 106.97648437 133.834375 106.44921875 132.71875 C100.60174574 120.56676011 93.54321786 109.45001922 85 99 C84.35933594 98.18660156 83.71867187 97.37320313 83.05859375 96.53515625 C74.72561533 86.0844043 65.73750153 75.55227633 55.2578125 67.19921875 C54.84273437 66.80347656 54.42765625 66.40773438 54 66 C54 65.34 54 64.68 54 64 C53.46632813 63.78472656 52.93265625 63.56945312 52.3828125 63.34765625 C49.12342392 61.50423156 46.5718823 58.99986627 43.875 56.4375 C40.23596593 52.81366093 40.23596593 52.81366093 36 50 C36 49.34 36 48.68 36 48 C35.34 48 34.68 48 34 48 C34.804375 49.5159375 34.804375 49.5159375 35.625 51.0625 C49.46773636 78.94432359 53.59574018 108.98057213 44 139 C38.85372371 153.39882585 29.82676451 165.46423296 20 177 C19.08734375 178.09828125 19.08734375 178.09828125 18.15625 179.21875 C14.13375515 183.97260754 9.7651225 188.00395717 5 192 C4.02933594 192.8353125 3.05867188 193.670625 2.05859375 194.53125 C-9.15721783 204.16712793 -20.80129565 212.96095528 -33.01953125 221.28125 C-46.89843455 230.73757512 -60.21546793 240.77999974 -72.9375 251.75 C-73.84133423 252.52790894 -73.84133423 252.52790894 -74.76342773 253.3215332 C-81.52210956 259.21398121 -87.58921679 265.35281764 -92.9375 272.5625 C-93.45256104 273.25504883 -93.96762207 273.94759766 -94.49829102 274.66113281 C-104.8624319 288.83802227 -111.67861261 303.97333539 -116 321 C-116.22816406 321.84433594 -116.45632813 322.68867187 -116.69140625 323.55859375 C-121.1089281 342.8659445 -118.13239726 364.9263963 -112.89892578 383.76342773 C-105.86380199 409.47955126 -105.09675233 436.95215815 -115 462 C-115.43892578 463.19109375 -115.43892578 463.19109375 -115.88671875 464.40625 C-117.86661727 469.58296028 -120.2283207 474.50648449 -122.75 479.4375 C-125.81223247 485.45092566 -128.62241267 491.53407481 -131.25 497.75 C-131.56678711 498.49306396 -131.88357422 499.23612793 -132.20996094 500.00170898 C-147.43502671 536.5266897 -148.92090725 578.51476909 -136 616 C-135.66162109 617.00836914 -135.66162109 617.00836914 -135.31640625 618.03710938 C-131.84615366 628.2812166 -127.26931044 637.57461373 -122 647 C-121.47277344 648.01191406 -120.94554687 649.02382813 -120.40234375 650.06640625 C-117.16448034 656.27446969 -113.44648988 661.60529385 -109 667 C-108.36707031 667.81726562 -107.73414063 668.63453125 -107.08203125 669.4765625 C-97.27078162 681.95691381 -86.04066461 692.94016985 -73 702 C-71.6455139 702.99956728 -70.29129256 703.9994936 -68.9375 705 C-66.12623598 707.10931954 -66.12623598 707.10931954 -63 708 C-63 708.66 -63 709.32 -63 710 C-62.21625 710.20625 -61.4325 710.4125 -60.625 710.625 C-57.53891919 711.79558237 -55.31126826 712.99702926 -52.5625 714.75 C-46.69053619 718.38122951 -40.46706527 720.78964023 -34.03076172 723.21435547 C-32.56582875 723.78109679 -31.11004774 724.37169578 -29.66064453 724.97705078 C3.11668838 738.61236999 47.59477077 740.62437403 80.94921875 728.12109375 C83.57996147 727.15435475 86.00404001 726.50494886 88.75 726 C94.22633653 724.8823803 99.00386399 722.44186147 104 720 C105.19625 719.44441406 106.3925 718.88882813 107.625 718.31640625 C119.43527278 712.73677322 130.75381171 705.90647466 140.89453125 697.640625 C143 696 143 696 145 696 C145 695.34 145 694.68 145 694 C146.4609375 692.4921875 146.4609375 692.4921875 148.375 690.875 C149.00148438 690.33617187 149.62796875 689.79734375 150.2734375 689.2421875 C152 688 152 688 154 688 C154.33 687.01 154.66 686.02 155 685 C156.62767068 683.29522913 158.301348 681.63405537 160 680 C166.6733961 673.04116365 172.77593213 666.12904019 178 658 C178.95132813 656.55753906 178.95132813 656.55753906 179.921875 655.0859375 C185.46563136 646.42650411 189.83866469 637.3858215 194 628 C194.40089844 627.10667969 194.80179688 626.21335937 195.21484375 625.29296875 C200.04486214 613.90653986 203.23178243 601.93117507 204.640625 589.66015625 C205 587 205 587 206 585 C212.32921902 543.86257017 200.23053242 500.52518965 178 466 C176.70303141 464.30488112 175.37623923 462.63141691 174 461 C173.46761719 460.29101562 172.93523437 459.58203125 172.38671875 458.8515625 C163.21836684 446.83786 152.02125911 436.12298294 140 427 C139.18160645 426.37496582 139.18160645 426.37496582 138.34667969 425.73730469 C130.97488727 420.13179864 123.42101037 414.89048704 115.6184082 409.90551758 C108.12406784 405.10897403 100.69900353 400.20958763 93.28656006 395.28775024 C91.82134048 394.31584954 90.3549367 393.34573138 88.88726807 392.37753296 C68.38667527 378.84974169 45.37985956 361.69883329 40 336 C38.95849553 329.18427222 38.68867783 322.38474308 38.4375 315.5 C38.39431641 314.39140625 38.35113281 313.2828125 38.30664062 312.140625 C38.20137786 309.42718494 38.09924154 306.71366583 38 304 C19.35347312 315.06281022 -0.69323569 330.58303505 -11 350 C-11.60199219 351.06476563 -12.20398437 352.12953125 -12.82421875 353.2265625 C-17.50974668 361.9296605 -19.94629943 370.3939812 -22 380 C-22.1750708 380.63494385 -22.3501416 381.2698877 -22.53051758 381.92407227 C-26.49923472 399.47269517 -21.30990827 419.26794568 -17.62109375 436.41796875 C-11.7705937 464.12847676 -12.94322507 488.78494989 -24.125 515 C-30.1787926 530.03914618 -29.97451872 548.68214413 -23.93359375 563.640625 C-16.79292878 579.00601629 -4.48051056 589.12118111 11.0690918 595.32495117 C18.13296474 597.7944933 24.9977572 598.33971193 32.4375 598.3125 C33.31470703 598.32861328 34.19191406 598.34472656 35.09570312 598.36132812 C49.886516 598.37222777 62.87897188 591.38003649 74 582 C74.72445313 581.0925 75.44890625 580.185 76.1953125 579.25 C76.79085938 578.5075 77.38640625 577.765 78 577 C78.66 577 79.32 577 80 577 C80.38865234 576.195625 80.38865234 576.195625 80.78515625 575.375 C81.68259992 573.62051206 82.63697831 571.894881 83.62109375 570.1875 C92.16741575 555.19008333 94.12937405 540.82078356 90 524 C88.91703243 520.84092871 87.58244395 517.93803404 86 515 C85.65195313 514.34644531 85.30390625 513.69289063 84.9453125 513.01953125 C75.91526327 497.41934276 62.541491 490.18201441 46.32202148 483.92919922 C28.96144661 477.17832439 17.52401695 467.36421981 9.6875 450.1875 C3.46131933 435.62218142 3.25036506 415.06393589 8.66015625 400.0859375 C9.10230469 399.06757812 9.54445313 398.04921875 10 397 C10.26796387 396.34805664 10.53592773 395.69611328 10.81201172 395.02441406 C11.68110401 392.92009087 12.58044818 390.83273925 13.5 388.75 C13.78431885 388.10434082 14.0686377 387.45868164 14.36157227 386.79345703 C15.62366077 384.12980684 16.61573253 382.267095 19.0625 380.56640625 C22.48967205 379.56451119 24.98162194 380.52076326 28.125 382 C30 384 30 384 31.125 387.8125 C36.20730685 404.56225321 51.13520118 414.86233607 65.75 422.74609375 C67.16561904 423.49936793 68.58229838 424.25065269 70 425 C70.71027344 425.37656738 71.42054688 425.75313477 72.15234375 426.14111328 C74.30899041 427.28329753 76.46681443 428.42322657 78.625 429.5625 C81.41889907 431.0374985 84.21102997 432.51570069 87 434 C87.62680664 434.33354492 88.25361328 434.66708984 88.89941406 435.01074219 C117.88570715 450.580611 139.80392982 474.20178023 149.890625 505.7890625 C158.51176509 535.11784301 155.01384172 568.26532497 140.78613281 595.30712891 C136.11270255 603.59816747 130.67662954 612.19245616 124 619 C123.34 619 122.68 619 122 619 C121.77699219 619.55429687 121.55398438 620.10859375 121.32421875 620.6796875 C110.20006128 640.17157404 81.4439528 650.57437736 61.24707031 656.38916016 C31.94956655 664.35334469 -0.7420501 660.23447521 -27.52734375 646.04296875 C-40.98738703 638.31209203 -54.80361973 628.69831315 -64 616 C-64 615.34 -64 614.68 -64 614 C-64.66 614 -65.32 614 -66 614 C-75.06787022 603.3636333 -81.4557579 590.09504881 -86 577 C-86.29648438 576.22269531 -86.59296875 575.44539062 -86.8984375 574.64453125 C-91.08036862 563.27878775 -91.38027068 551.23143201 -91.3125 539.25 C-91.31001251 538.54423828 -91.30752502 537.83847656 -91.30496216 537.11132812 C-91.20377262 518.52399241 -87.21057146 502.45354629 -81.82373047 484.71386719 C-80.73529009 481.1278852 -79.67225028 477.53574454 -78.625 473.9375 C-78.18027344 472.43509766 -78.18027344 472.43509766 -77.7265625 470.90234375 C-72.2333087 448.95886219 -77.07366838 424.45830171 -81.3046875 402.6796875 C-85.30518903 381.50849402 -86.11221983 359.7985258 -80 339 C-79.71125 337.94296875 -79.4225 336.8859375 -79.125 335.796875 C-70.01765056 305.38483312 -47.02491133 280.49667359 -22 262 C-21.14921875 261.36578125 -20.2984375 260.7315625 -19.421875 260.078125 C-10.38597893 253.55552452 -0.62048357 248.10114407 9 242.5 C11.00048809 241.33417047 13.00045742 240.16745046 15 239 C15.59312988 238.65469238 16.18625977 238.30938477 16.79736328 237.95361328 C38.91175811 225.04072226 57.87146063 209.46104431 65.90625 184.14453125 C66.63415023 180.7779927 66.97304192 177.52852019 67.1484375 174.08984375 C67.56589847 166.54572764 67.56589847 166.54572764 70.1875 163.25 C73.69525153 161.69099932 75.37319655 161.8173467 79 163 C80.65625 164.12109375 80.65625 164.12109375 82 166 C84.20338206 183.62705647 77.06054294 200.78220791 67 215 C61.0419045 222.65023025 54.70972369 230.06434176 47 236 C46.34902344 236.50273438 45.69804688 237.00546875 45.02734375 237.5234375 C40.35031077 241 40.35031077 241 38 241 C38 241.66 38 242.32 38 243 C37.472854 243.28915283 36.94570801 243.57830566 36.40258789 243.8762207 C8.05699841 259.20967873 8.05699841 259.20967873 -18 278 C-18.53367187 278.44633789 -19.06734375 278.89267578 -19.6171875 279.35253906 C-42.03267027 298.13407075 -61.56149486 320.42154944 -67 350 C-67.24834595 351.11725464 -67.24834595 351.11725464 -67.50170898 352.25708008 C-72.19553876 373.78815862 -68.60289168 399.18614208 -62.8984375 420.34765625 C-56.89473505 444.75401186 -61.99771427 470.5125176 -68.95703125 494.00854492 C-72.44350337 505.88882924 -75.84732502 517.63876154 -77 530 C-77.061875 530.65838867 -77.12375 531.31677734 -77.1875 531.99511719 C-78.57374593 549.71307296 -74.82344578 569.55896989 -66 585 C-65.22792761 586.39514836 -64.45718608 587.79103372 -63.6875 589.1875 C-62.13110775 591.99342975 -60.55348681 594.78534083 -58.953125 597.56640625 C-57.55619567 600.022208 -56.21802003 602.45381983 -55 605 C-54.34 605 -53.68 605 -53 605 C-51.51953125 606.50390625 -51.51953125 606.50390625 -49.8125 608.5625 C-49.17828125 609.29984375 -48.5440625 610.0371875 -47.890625 610.796875 C-46.77442408 612.09757194 -45.65935818 613.39924687 -44.546875 614.703125 C-29.90716273 630.57565515 -4.51101572 642.56737938 17 644 C21.81335371 644.15988284 26.62177146 644.18506658 31.4375 644.1875 C32.70916016 644.19974609 33.98082031 644.21199219 35.29101562 644.22460938 C42.17588718 644.2353168 48.37028274 643.84592128 55 642 C56.18722656 641.73960937 57.37445312 641.47921875 58.59765625 641.2109375 C73.76517255 637.55158182 88.65151306 630.23111235 100.5625 620.0625 C103 618 103 618 105 618 C105 617.34 105 616.68 105 616 C106.1146163 614.85055194 107.23687835 613.70796155 108.38671875 612.59375 C124.72818709 596.45012026 134.05671076 577.38986263 138 555 C138.19207031 554.02933594 138.38414062 553.05867187 138.58203125 552.05859375 C142.24369806 525.26340581 134.99076936 499.91633724 118.87109375 478.43359375 C118.25363281 477.63050781 117.63617187 476.82742188 117 476 C116.55785156 475.41347656 116.11570312 474.82695313 115.66015625 474.22265625 C102.3305382 457.3025687 80.48873519 447.34916495 61.8125 437.6875 C50.93523752 432.03477556 41.91680041 425.43884796 33 417 C31.95392578 416.01580078 31.95392578 416.01580078 30.88671875 415.01171875 C26.27474722 410.55252475 26.27474722 410.55252475 24.9375 407.86328125 C24.14343482 405.82255572 24.14343482 405.82255572 22 405 C17.69181699 420.28543332 19.06716653 436.66922741 26.25 450.9375 C33.80380917 462.9784973 45.90181589 468.97724306 59.1875 473 C75.33608208 478.0176734 90.17810523 491.20227708 98.80859375 505.671875 C107.35880772 522.37983409 110.31368954 541.79802755 104.9375 560 C100.64097228 573.25701889 93.8131 583.31526904 84 593 C83.319375 593.67933594 82.63875 594.35867188 81.9375 595.05859375 C66.77680288 609.24016252 48.4109327 613.87990613 28.203125 613.64477539 C13.8800673 613.14452154 2.551259 608.91745525 -10 602 C-10 601.34 -10 600.68 -10 600 C-10.72703125 599.74992188 -11.4540625 599.49984375 -12.203125 599.2421875 C-25.42718415 593.36893218 -34.85017729 577.69168296 -39.89453125 564.6953125 C-40.67275455 562.47948457 -41.35382957 560.25755793 -42 558 C-42.20625 557.35160156 -42.4125 556.70320312 -42.625 556.03515625 C-47.56513291 538.16148094 -42.35410237 519.73057395 -35.95703125 503.02661133 C-31.64487205 491.74539981 -28.82371843 480.96206309 -28.8125 468.8125 C-28.80025391 468.13380859 -28.78800781 467.45511719 -28.77539062 466.75585938 C-28.74861017 457.10596746 -31.04548395 447.64563353 -32.8527832 438.20898438 C-39.92233095 401.10919252 -40.93146047 368.11206162 -19.44140625 335.48046875 C-16.08713149 330.56938029 -12.1500763 326.24772515 -8 322 C-7.13375 321.113125 -6.2675 320.22625 -5.375 319.3125 C-4.59125 318.549375 -3.8075 317.78625 -3 317 C-2.5138623 316.49557373 -2.02772461 315.99114746 -1.52685547 315.47143555 C2.77211568 311.04282493 7.32302015 307.20893648 12.25 303.5 C13.0023291 302.92958984 13.7546582 302.35917969 14.52978516 301.77148438 C19.19135083 298.26955696 23.9223112 294.9997091 28.8984375 291.95703125 C35.76783612 287.62256184 42.40299043 282.91867368 49.08984375 278.30932617 C53.92652074 274.99400169 53.92652074 274.99400169 57.0625 275.25 C60 276 60 276 62 278 C62.56091309 283.51564535 62.11743257 286.23543028 59.15625 291.015625 C52.20572894 302.94422196 51.80493494 319.15677722 54.8828125 332.43359375 C57.34724843 340.40628881 61.05023662 347.3039156 66 354 C66.69029297 354.94746094 66.69029297 354.94746094 67.39453125 355.9140625 C75.55601992 366.21588393 87.80460426 374.09555889 98.8125 381.125 C99.53824219 381.59236572 100.26398438 382.05973145 101.01171875 382.54125977 C104.90145904 385.03996985 108.80782033 387.51032678 112.73046875 389.95703125 C125.21832852 397.75346783 137.49487966 405.79590373 149 415 C149.66 415.33 150.32 415.66 151 416 C151 416.66 151 417.32 151 418 C151.54914063 418.24363281 152.09828125 418.48726562 152.6640625 418.73828125 C159.63488755 422.50345933 165.80349275 428.30092239 170.7421875 434.453125 C172.13679209 436.22222626 172.13679209 436.22222626 174.5 438.5 C184.77560441 448.77560441 193.5355965 461.01398589 200 474 C200.48855469 474.92941406 200.97710938 475.85882812 201.48046875 476.81640625 C221.85966657 516.16030744 226.53419657 559.83743453 218 603 C217.86158691 603.71865234 217.72317383 604.43730469 217.58056641 605.17773438 C215.2501331 617.03400422 211.25966222 628.14672875 206 639 C205.70577148 639.61423828 205.41154297 640.22847656 205.10839844 640.86132812 C194.72985176 662.46306415 181.16285816 680.81881586 164.3125 697.8125 C163.7777002 698.35213379 163.24290039 698.89176758 162.69189453 699.44775391 C153.09810403 709 153.09810403 709 150 709 C150 709.66 150 710.32 150 711 C148.31874988 712.19542478 146.57751917 713.30712843 144.8125 714.375 C141.90484825 716.1421672 139.1710293 717.85964739 136.5390625 720.01953125 C133.6837561 722.24667024 130.82028463 723.73445172 127.5625 725.3125 C126.31097496 725.92141697 125.05967909 726.53080513 123.80859375 727.140625 C123.17421387 727.44806641 122.53983398 727.75550781 121.88623047 728.07226562 C120.09012824 728.95567081 118.31202184 729.8753889 116.53515625 730.796875 C78.81685233 750.32571048 35.55780932 754.88797906 -6 747 C-6.83402344 746.85014648 -7.66804688 746.70029297 -8.52734375 746.54589844 C-26.38882905 743.30523604 -44.46566044 737.60539996 -60 728 C-61.64383683 727.14199736 -63.28977858 726.28801876 -64.9375 725.4375 C-82.80445346 715.72249435 -103.11705939 700.69469473 -115 684 C-115 683.34 -115 682.68 -115 682 C-115.66 682 -116.32 682 -117 682 C-118.2890625 680.5390625 -118.2890625 680.5390625 -119.625 678.625 C-120.29402344 677.68527344 -120.29402344 677.68527344 -120.9765625 676.7265625 C-122 675 -122 675 -122 673 C-122.66 673 -123.32 673 -124 673 C-125.40342414 671.04854453 -126.72498008 669.03767072 -128 667 C-128.61359375 666.04222656 -129.2271875 665.08445312 -129.859375 664.09765625 C-140.25445491 647.40968706 -147.9141999 630.97895204 -153.1875 612 C-153.42549316 611.14720459 -153.66348633 610.29440918 -153.90869141 609.41577148 C-154.65685763 606.62050294 -155.34083571 603.81762195 -156 601 C-156.40822998 599.27040039 -156.40822998 599.27040039 -156.82470703 597.50585938 C-159.23991023 586.16490523 -159.55399103 575.06865956 -159.5 563.5 C-159.49890228 562.53155151 -159.49780457 561.56310303 -159.49667358 560.56530762 C-159.44755843 545.45779794 -158.32997749 531.55105991 -154 517 C-153.62116212 515.58531204 -153.24472818 514.16997739 -152.87109375 512.75390625 C-148.29633426 496.19946283 -140.43842505 480.48022748 -132.80615234 465.16577148 C-127.77993664 454.92543551 -124.08252863 444.39838965 -123 433 C-122.905979 432.02764404 -122.905979 432.02764404 -122.81005859 431.03564453 C-121.16021012 410.80524897 -126.61151477 390.57659429 -130.63769531 370.88037109 C-137.58134363 336.74828165 -130.6839517 303.38392361 -112.15234375 274.078125 C-108.10084296 268.13469332 -103.54192303 262.57204991 -99 257 C-98.00226563 255.71416016 -98.00226563 255.71416016 -96.984375 254.40234375 C-95.23456451 252.28397081 -93.54742305 250.61580044 -91.4375 248.875 C-87.95836378 245.91320745 -84.75726833 242.76635978 -81.5625 239.5 C-77.00355083 234.87383505 -72.25176247 230.81700262 -67 227 C-66.22914063 226.42378906 -65.45828125 225.84757813 -64.6640625 225.25390625 C-59.62873245 221.52776201 -54.49920625 217.97116578 -49.31152344 214.46191406 C-39.85847037 208.06263285 -30.71621877 201.36548537 -21.72265625 194.33642578 C-20.31826985 193.24691173 -18.89598162 192.18050488 -17.46875 191.12109375 C-11.64626277 186.78681687 -6.4462934 181.82825645 -1.22607422 176.79711914 C-0.60877441 176.20793701 0.00852539 175.61875488 0.64453125 175.01171875 C1.19471924 174.48022217 1.74490723 173.94872559 2.31176758 173.40112305 C4.10424701 171.91348177 5.9237004 171.03445434 8 170 C9.04203015 168.17750736 9.04203015 168.17750736 10 166 C11.38947239 164.10475966 12.80960594 162.23183451 14.25 160.375 C29.9162285 139.75213606 36.87788568 117.41583976 33.50390625 91.5625 C28.62591581 60.93915186 10.55849215 33.52053343 -9.24609375 10.375 C-11.67075923 7.09171133 -11.58953322 4.97934923 -11 1 C-7.737658 -3.30629144 -4.55547587 -1.73936352 0 0 Z " fill="#0B0C09" transform="translate(1377,367)"/>
<path d="M0 0 C4.8735883 0.59676591 4.8735883 0.59676591 7.0625 3.375 C7.54417799 8.43261884 7.02327716 12.78598468 6.0625 17.75 C2.46642656 38.21398624 5.59260308 60.15162121 13.0625 79.375 C13.54504262 80.67549514 14.02679675 81.97628309 14.5078125 83.27734375 C17.33816254 90.78696928 20.64426347 97.65808636 25.0625 104.375 C25.7669726 105.51349016 26.46999299 106.65287966 27.171875 107.79296875 C35.4433855 120.97574276 45.96906787 132.56494316 58.0625 142.375 C58.90296875 143.07625 59.7434375 143.7775 60.609375 144.5 C92.13919011 169.58449379 134.5265596 178.70589218 173.9375 174.3125 C185.82056818 172.80580658 196.86194146 169.5424482 208.0625 165.375 C209.25625244 164.93317383 209.25625244 164.93317383 210.47412109 164.48242188 C224.28725624 159.28177213 236.3065835 152.33106065 248.0625 143.375 C248.87203125 142.78332031 249.6815625 142.19164062 250.515625 141.58203125 C277.92134677 120.85092881 296.34822572 87.49397459 301.625 53.78125 C302.25982971 48.36514012 302.25208158 42.94707033 302.25 37.5 C302.25422974 35.85692871 302.25422974 35.85692871 302.25854492 34.18066406 C302.22184003 26.67533581 301.7492908 19.35200582 300.51049805 11.94580078 C299.99435708 8.50347686 299.93647352 6.64054312 301.44921875 3.453125 C303.0625 1.375 303.0625 1.375 304.0625 0.375 C310.35367029 -0.09101261 310.35367029 -0.09101261 312.68530273 1.44189453 C314.68455155 4.24814379 315.15121375 7.22546989 315.72265625 10.5546875 C315.84858658 11.26333954 315.97451691 11.97199158 316.10426331 12.70211792 C317.3567708 20.28963542 317.57036117 27.8222612 317.5 35.5 C317.49543793 36.56734375 317.49543793 36.56734375 317.49078369 37.65625 C317.32681487 63.77466159 310.83916097 85.70965108 298.17431641 108.38085938 C297.2781454 109.98822099 296.40657532 111.609285 295.54296875 113.234375 C279.44072706 142.2281395 250.17524598 164.65077896 220.0625 177.375 C218.57943359 178.01888672 218.57943359 178.01888672 217.06640625 178.67578125 C175.17196264 195.91387715 127.85800867 193.78929628 86.1875 177.1875 C72.45968637 171.44510279 59.79824197 162.43416924 48.0625 153.375 C47.14210938 152.6840625 46.22171875 151.993125 45.2734375 151.28125 C44.17902344 150.33765625 44.17902344 150.33765625 43.0625 149.375 C43.0625 148.715 43.0625 148.055 43.0625 147.375 C42.48886719 147.12621094 41.91523437 146.87742187 41.32421875 146.62109375 C25.97706262 138.1655794 13.75957002 116.54633012 6.0625 101.375 C5.68109863 100.65441406 5.29969727 99.93382812 4.90673828 99.19140625 C1.79368249 93.19397048 -0.56252291 87.1989762 -2.5625 80.75 C-2.86172363 79.79722168 -3.16094727 78.84444336 -3.46923828 77.86279297 C-9.96092256 56.64285517 -12.47020188 34.08489786 -8.125 12.1875 C-7.9597583 11.34477539 -7.7945166 10.50205078 -7.62426758 9.63378906 C-5.66909312 0.72371402 -5.66909312 0.72371402 0 0 Z " fill="#0B0B09" transform="translate(1253.9375,882.625)"/>
<path d="M0 0 C3.95988635 0.80540061 4.44757548 1.01481701 6.75 4.0625 C17.33688026 21.87805657 19.73083577 46.73445587 15.5625 66.765625 C10.94599057 82.51121965 3.62837634 97.67846252 -4.1875 112.0625 C-9.71700148 123.02583685 -10.93085676 135.58756175 -7.6875 147.3125 C-2.04166137 164.11231251 11.92418868 175.41614716 25.8125 185.5 C31.59252121 189.73162111 37.36839343 193.96562208 43.0625 198.3125 C44.03960938 199.05628906 45.01671875 199.80007813 46.0234375 200.56640625 C53.49251638 206.68842252 53.49251638 206.68842252 54.25 210.8125 C53.6875 213.75 53.6875 213.75 52.125 216.1875 C49.6875 217.75 49.6875 217.75 46.4140625 217.625 C42.11185731 216.61483861 40.01522503 215.11654419 36.625 212.3125 C35.48886516 211.39349683 34.3507784 210.4769025 33.2109375 209.5625 C32.63053711 209.09328125 32.05013672 208.6240625 31.45214844 208.140625 C28.631098 205.91750611 25.69191917 203.87122493 22.75 201.8125 C2.2339482 187.27066771 -15.81769246 172.71124744 -23.3125 147.75 C-23.51230469 147.12351562 -23.71210937 146.49703125 -23.91796875 145.8515625 C-27.42255995 127.18354202 -21.01510068 109.98183687 -12.3828125 93.80029297 C-10.48565985 90.1661032 -8.74418812 86.45940172 -7 82.75 C-6.51213013 81.72700806 -6.51213013 81.72700806 -6.0144043 80.68334961 C2.43107731 62.75506808 5.0124938 42.88656884 -1.3125 23.75 C-2.62170406 20.18605562 -3.96125146 16.63420071 -5.41845703 13.12792969 C-7.37145016 8.28859014 -7.37145016 8.28859014 -7.0546875 5.39453125 C-5.38217548 1.68859673 -4.02089949 0.91039234 0 0 Z " fill="#0D0D0A" transform="translate(1553.3125,509.25)"/>
<path d="M0 0 C3.375 1.0625 3.375 1.0625 5.125 2.9375 C11.92313014 19.93282534 14.26458544 43.54161784 7.07421875 60.65600586 C0.72209602 74.44018503 -7.75292066 84.64226313 -19.625 94.0625 C-20.40875 94.7121875 -21.1925 95.361875 -22 96.03125 C-26.96117648 100.12086845 -32.11012392 103.78820194 -37.4375 107.375 C-46.92852435 113.78300983 -55.57502745 120.90537308 -63.625 129.0625 C-64.21023438 129.61292969 -64.79546875 130.16335938 -65.3984375 130.73046875 C-70.98848965 136.03420116 -75.36439321 142.13441592 -79.203125 148.8046875 C-80.625 151.0625 -80.625 151.0625 -82.625 152.0625 C-86.67642119 152.32110135 -88.16837669 152.36691554 -91.625 150.0625 C-92.80574104 145.51374352 -93.28862952 142.56711557 -90.921875 138.421875 C-90.09825173 137.20126665 -89.24779862 135.99844375 -88.375 134.8125 C-87.92769531 134.17497803 -87.48039062 133.53745605 -87.01953125 132.88061523 C-82.44434419 126.51289903 -77.36535744 120.4141874 -71.625 115.0625 C-70.965 115.0625 -70.305 115.0625 -69.625 115.0625 C-69.625 114.4025 -69.625 113.7425 -69.625 113.0625 C-60.57419047 104.50092342 -49.78899009 97.48438895 -39.68359375 90.234375 C-24.3470611 79.18392582 -8.79286826 66.56287259 -4.625 47.0625 C-3.7134994 35.07721008 -3.97740442 23.47221714 -7.75 12.0234375 C-8.60121762 9.14297787 -8.96085364 7.03867994 -8.625 4.0625 C-5.77807463 0.7842223 -4.37077423 0.07535818 0 0 Z " fill="#0C0C09" transform="translate(1343.625,435.9375)"/>
<path d="M0 0 C1.97265625 1.19140625 1.97265625 1.19140625 4 3 C4.49609375 5.33984375 4.49609375 5.33984375 4.4375 7.9375 C4.43621094 8.79214844 4.43492188 9.64679687 4.43359375 10.52734375 C3.92940214 13.40259862 2.90193919 14.82563451 1 17 C0.01 16.67 -0.98 16.34 -2 16 C-2.33 19.3 -2.66 22.6 -3 26 C-4.65 26.33 -6.3 26.66 -8 27 C-7.46649744 20.50779983 -5.78611207 15.05523349 -3.4375 9 C-3.10814453 8.12988281 -2.77878906 7.25976562 -2.43945312 6.36328125 C-1.63411705 4.23906146 -0.82088519 2.11824836 0 0 Z " fill="#171713" transform="translate(1349,716)"/>
<path d="M0 0 C0.93423645 3.01031744 1.04449911 3.86650268 0 7 C0.84164327 10.02496878 0.84164327 10.02496878 2 13 C3.04449911 16.13349732 2.93423645 16.98968256 2 20 C-3.625 20.25 -3.625 20.25 -7 18 C-8.25980131 13.77596031 -8.73624384 11.51523732 -6.7890625 7.5078125 C-2.78325416 1.39162708 -2.78325416 1.39162708 0 0 Z " fill="#131311" transform="translate(1259,568)"/>
<path d="M0 0 C1.86591797 0.07250977 1.86591797 0.07250977 3.76953125 0.14648438 C5.69732422 0.2305957 5.69732422 0.2305957 7.6640625 0.31640625 C8.97246094 0.36861328 10.28085938 0.42082031 11.62890625 0.47460938 C14.84922328 0.60389218 18.0691993 0.73884315 21.2890625 0.87890625 C21.2890625 1.20890625 21.2890625 1.53890625 21.2890625 1.87890625 C22.95518155 1.92162725 24.62289135 1.91954457 26.2890625 1.87890625 C26.6190625 1.54890625 26.9490625 1.21890625 27.2890625 0.87890625 C28.80834288 0.80710661 30.33073732 0.79498618 31.8515625 0.81640625 C32.67785156 0.82542969 33.50414062 0.83445312 34.35546875 0.84375 C34.99355469 0.85535156 35.63164063 0.86695313 36.2890625 0.87890625 C32.48608097 4.68188778 26.53102543 3.9937096 21.39053345 4.01785278 C20.68931366 4.01582855 19.98809387 4.01380432 19.265625 4.01171875 C18.52001312 4.01267548 17.77440125 4.0136322 17.00619507 4.01461792 C15.43804845 4.01529445 13.86989895 4.01347714 12.30175781 4.00927734 C9.92766891 4.00393686 7.55377049 4.00923248 5.1796875 4.015625 C-2.17633158 4.01852404 -9.41513362 3.93553992 -16.7109375 2.87890625 C-11.3763189 -0.19875833 -6.02652218 -0.24880137 0 0 Z " fill="#131410" transform="translate(1400.7109375,1113.12109375)"/>
<path d="M0 0 C0.33 0 0.66 0 1 0 C1.22540089 1.99814845 1.42941964 3.99871264 1.625 6 C1.74101563 7.11375 1.85703125 8.2275 1.9765625 9.375 C1.99894299 12.83651628 1.39118815 15.58358556 0.46728516 18.8984375 C-0.35151267 22.58088874 -0.20956813 26.24647609 -0.125 30 C-0.11597656 30.77472656 -0.10695313 31.54945313 -0.09765625 32.34765625 C-0.07439388 34.23190843 -0.0385364 36.11599832 0 38 C-0.66 38 -1.32 38 -2 38 C-2 38.99 -2 39.98 -2 41 C-2.66 41 -3.32 41 -4 41 C-3.88186981 36.47914629 -3.75763024 31.95851786 -3.62768555 27.43798828 C-3.58433074 25.89962347 -3.54265605 24.36121037 -3.50268555 22.82275391 C-3.44499602 20.6134586 -3.38129821 18.40440652 -3.31640625 16.1953125 C-3.29969376 15.50567413 -3.28298126 14.81603577 -3.26576233 14.10549927 C-3.11387171 9.22774341 -3.11387171 9.22774341 -2 7 C-1.34 7 -0.68 7 0 7 C0 4.69 0 2.38 0 0 Z " fill="#12130E" transform="translate(1353,774)"/>
<path d="M0 0 C0.66 0 1.32 0 2 0 C3.78101897 6.83658857 4.25249204 13.01611283 4.125 20.0625 C4.11597656 21.02349609 4.10695313 21.98449219 4.09765625 22.97460938 C4.07435208 25.31667805 4.04164058 27.65819792 4 30 C2.68 30.33 1.36 30.66 0 31 C-0.83855129 24.50122752 -1.10930326 18.10673118 -1.125 11.5625 C-1.12951172 10.76924316 -1.13402344 9.97598633 -1.13867188 9.15869141 C-1.13017653 5.85329533 -1.05228544 3.15685631 0 0 Z " fill="#0F0F0B" transform="translate(1480,888)"/>
<path d="M0 0 C0.66 0.33 1.32 0.66 2 1 C1.67 9.91 1.34 18.82 1 28 C0.67 28 0.34 28 0 28 C-0.66 23.05 -1.32 18.1 -2 13 C-2.99 16.3 -3.98 19.6 -5 23 C-5.33 23 -5.66 23 -6 23 C-6.41626139 20.39761763 -6.80854441 17.79534235 -7.1875 15.1875 C-7.36829102 14.08051758 -7.36829102 14.08051758 -7.55273438 12.95117188 C-8.31998681 7.48140449 -8.31998681 7.48140449 -6.68359375 5.01953125 C-5 4 -5 4 -2.875 3.5 C-2.25625 3.335 -1.6375 3.17 -1 3 C-0.67 2.01 -0.34 1.02 0 0 Z " fill="#151511" transform="translate(1303,756)"/>
<path d="M0 0 C0.99 0 1.98 0 3 0 C3.12512273 6.50638193 3.12512273 6.50638193 2.50219727 8.96386719 C1.9596996 11.16339588 1.88618265 13.06557154 1.90234375 15.328125 C1.90556641 16.12734375 1.90878906 16.9265625 1.91210938 17.75 C1.92048828 18.575 1.92886719 19.4 1.9375 20.25 C1.94201172 21.09046875 1.94652344 21.9309375 1.95117188 22.796875 C1.96292039 24.86461401 1.98085478 26.93231624 2 29 C2.33 29 2.66 29 3 29 C3 32.96 3 36.92 3 41 C1.68 40.67 0.36 40.34 -1 40 C-1.02464775 34.46411467 -1.04283496 28.928261 -1.05493164 23.39233398 C-1.05997244 21.5075627 -1.06680498 19.62279535 -1.07543945 17.73803711 C-1.08751617 15.03498364 -1.09323068 12.33198169 -1.09765625 9.62890625 C-1.10281754 8.78099014 -1.10797882 7.93307404 -1.11329651 7.0594635 C-1.11349195 5.03928932 -1.06206211 3.01922066 -1 1 C-0.67 0.67 -0.34 0.34 0 0 Z " fill="#303029" transform="translate(1557,898)"/>
<path d="M0 0 C2.4375 0.75 2.4375 0.75 5 2 C5.8125 4.125 5.8125 4.125 6 6 C5.0409375 6.37125 5.0409375 6.37125 4.0625 6.75 C1.91334682 7.78964544 1.91334682 7.78964544 1.25 9.625 C1.02004271 11.80959429 1.05172055 13.80975868 1.125 16 C1.18057948 18.97906037 1.09137447 19.84770922 -0.5 22.5 C-0.995 22.995 -1.49 23.49 -2 24 C-3.76527046 18.31190629 -4.2536642 15.63416051 -2 10 C-1.25050924 6.68225422 -0.62120444 3.34393028 0 0 Z " fill="#11120F" transform="translate(1576,847)"/>
<path d="M0 0 C0.99 0 1.98 0 3 0 C3 7.26 3 14.52 3 22 C2.34 22 1.68 22 1 22 C0.67 22.66 0.34 23.32 0 24 C-1.2772917 20.16812489 -1.14510286 16.55291683 -1.125 12.5625 C-1.12886719 11.79873047 -1.13273437 11.03496094 -1.13671875 10.24804688 C-1.13542969 9.50748047 -1.13414063 8.76691406 -1.1328125 8.00390625 C-1.13112061 6.99565796 -1.13112061 6.99565796 -1.12939453 5.96704102 C-0.99199609 3.87832541 -0.56530559 2.01169075 0 0 Z " fill="#23231E" transform="translate(1334,895)"/>
<path d="M0 0 C0.99 0.33 1.98 0.66 3 1 C0.24916478 4.87154586 -1.63213294 6.33605064 -6 8 C-7.38609734 9.1220788 -8.76814453 10.25043981 -10.109375 11.42578125 C-14.22202967 14.85016107 -18.6527685 17.88267919 -23 21 C-23.66 20.01 -24.32 19.02 -25 18 C-24.52691406 17.66790527 -24.05382813 17.33581055 -23.56640625 16.99365234 C-21.37668509 15.45540524 -19.18833933 13.91521221 -17 12.375 C-16.25621094 11.85292969 -15.51242187 11.33085938 -14.74609375 10.79296875 C-14.00488281 10.27089844 -13.26367188 9.74882813 -12.5 9.2109375 C-11.75492188 8.68725586 -11.00984375 8.16357422 -10.2421875 7.62402344 C-7.32501915 5.51110925 -4.51765103 3.26709656 -1.7265625 0.99072266 C-1.15679688 0.66378418 -0.58703125 0.3368457 0 0 Z " fill="#191915" transform="translate(1349,566)"/>
<path d="M0 0 C0.99 1.485 0.99 1.485 2 3 C2.99 2.67 3.98 2.34 5 2 C5.2236337 3.41433206 5.42826476 4.83167618 5.625 6.25 C5.74101563 7.03890625 5.85703125 7.8278125 5.9765625 8.640625 C6.00319395 11.32152459 5.36592084 12.72694089 4 15 C4 14.34 4 13.68 4 13 C3.34 13 2.68 13 2 13 C2 14.65 2 16.3 2 18 C1.67 18 1.34 18 1 18 C0.04380267 14.00204108 -0.1039592 10.29196078 -0.0625 6.1875 C-0.05347656 5.02605469 -0.04445313 3.86460937 -0.03515625 2.66796875 C-0.02355469 1.78753906 -0.01195312 0.90710938 0 0 Z " fill="#191914" transform="translate(1303,712)"/>
<path d="M0 0 C2 2 2 2 3 5 C3.66 4.34 4.32 3.68 5 3 C3.97137215 8.44567686 2.75385216 13.11817117 0 18 C-0.99 18 -1.98 18 -3 18 C-3 14.7 -3 11.4 -3 8 C-2.01 9.485 -2.01 9.485 -1 11 C-0.67 7.37 -0.34 3.74 0 0 Z " fill="#20201B" transform="translate(1560,581)"/>
<path d="M0 0 C0.33 0 0.66 0 1 0 C1 5.61 1 11.22 1 17 C1.66 17.33 2.32 17.66 3 18 C-1.75 22.875 -1.75 22.875 -4 24 C-3.52087184 15.75569133 -2.02214499 7.99955473 0 0 Z " fill="#141511" transform="translate(1476,630)"/>
<path d="M0 0 C1.78198477 3.30710686 2.96157065 6.68214999 4.125 10.25 C4.47820312 11.32765625 4.83140625 12.4053125 5.1953125 13.515625 C5.46085937 14.33546875 5.72640625 15.1553125 6 16 C5.34 16 4.68 16 4 16 C3.67 16.66 3.34 17.32 3 18 C2.67 17.01 2.34 16.02 2 15 C1.01 14.34 0.02 13.68 -1 13 C-1.58203125 10.9765625 -1.58203125 10.9765625 -1.8125 8.625 C-1.90144531 7.85414063 -1.99039062 7.08328125 -2.08203125 6.2890625 C-1.9893116 3.70174274 -1.3060765 2.20873169 0 0 Z " fill="#1D1D1A" transform="translate(1543,650)"/>
<path d="M0 0 C0.33 0 0.66 0 1 0 C1 6.93 1 13.86 1 21 C-0.32 21.33 -1.64 21.66 -3 22 C-3 16.72 -3 11.44 -3 6 C-2.34 6.66 -1.68 7.32 -1 8 C-0.67 5.36 -0.34 2.72 0 0 Z " fill="#272721" transform="translate(1483,897)"/>
<path d="M0 0 C2.0625 0.4375 2.0625 0.4375 4 1 C3.01 1.33 2.02 1.66 1 2 C1.185625 2.5775 1.37125 3.155 1.5625 3.75 C2.0497818 6.25602068 1.68239817 7.57369541 1 10 C1 11.32 1 12.64 1 14 C-0.32 14.33 -1.64 14.66 -3 15 C-4.44993609 6.98167874 -4.44993609 6.98167874 -2.625 3 C-1 1 -1 1 0 0 Z " fill="#20201A" transform="translate(1558,883)"/>
<path d="M0 0 C0.99 0.33 1.98 0.66 3 1 C3 1.66 3 2.32 3 3 C2.319375 3.391875 1.63875 3.78375 0.9375 4.1875 C-3.31783063 6.81312954 -7.72918724 10.45837447 -10 15 C-11.97888961 15.72693904 -13.97954558 16.39816251 -16 17 C-11.01595832 10.96668638 -5.58084697 5.4815829 0 0 Z " fill="#171713" transform="translate(1340,641)"/>
<path d="M0 0 C0.9341962 3.21778691 0.82604348 5.4254193 0.25 8.73046875 C-0.20298939 12.84276303 0.04011517 16.9799617 0.16015625 21.109375 C0 24 0 24 -2 27 C-3.10621685 17.24396702 -3.1173176 9.45762457 0 0 Z " fill="#1B1B18" transform="translate(1192,676)"/>
<path d="M0 0 C0.99 0.33 1.98 0.66 3 1 C1.45730076 5.72065967 -0.07794619 10.41664092 -2 15 C-4.60018816 11.09971775 -4.15085514 7.52565431 -4 3 C-3.01 3 -2.02 3 -1 3 C-0.67 2.01 -0.34 1.02 0 0 Z " fill="#1B1B17" transform="translate(1419,500)"/>
<path d="M0 0 C3.38274926 2.62583575 3.72947437 5.31642694 4.375 9.4375 C4.56835938 10.57058594 4.76171875 11.70367187 4.9609375 12.87109375 C5.00512621 16.41060964 4.41725371 17.50298918 2 20 C1.46867611 17.41842632 0.94965621 14.83538244 0.4375 12.25 C0.21030273 11.15558594 0.21030273 11.15558594 -0.02148438 10.0390625 C-0.74557178 6.33442927 -1.09817231 3.60677678 0 0 Z " fill="#181914" transform="translate(1409,443)"/>
<path d="M0 0 C1.49341969 2.98683937 0.40648676 4.95160978 -0.4375 8.125 C-0.72496094 9.22070312 -1.01242187 10.31640625 -1.30859375 11.4453125 C-1.65083984 12.70988281 -1.65083984 12.70988281 -2 14 C-2.33 13.01 -2.66 12.02 -3 11 C-3.66 11 -4.32 11 -5 11 C-5.33 8.03 -5.66 5.06 -6 2 C-4.02 1.34 -2.04 0.68 0 0 Z " fill="#24241F" transform="translate(1356,737)"/>
<path d="M0 0 C0.66 0 1.32 0 2 0 C2.90570419 6.89618858 3.1222984 13.61208545 3.0625 20.5625 C3.05798828 21.57119141 3.05347656 22.57988281 3.04882812 23.61914062 C3.03716769 26.07949147 3.02080378 28.53971239 3 31 C2.67 31 2.34 31 2 31 C1.67 24.73 1.34 18.46 1 12 C0.67 12 0.34 12 0 12 C0 8.04 0 4.08 0 0 Z " fill="#262722" transform="translate(1423,453)"/>
<path d="M0 0 C0.66 0 1.32 0 2 0 C3.85139844 3.81170266 4.21948327 5.93505577 3 10 C2.36562656 11.6792238 1.70710678 13.35008418 1 15 C0.34 15 -0.32 15 -1 15 C-0.67 10.05 -0.34 5.1 0 0 Z " fill="#23221C" transform="translate(1417,433)"/>
<path d="M0 0 C1.5078125 1.3671875 1.5078125 1.3671875 3 3 C2.72032432 7.7544866 0.55389866 12.51421707 -1 17 C-1.33 16.34 -1.66 15.68 -2 15 C-2.66 15 -3.32 15 -4 15 C-3.71125 14.195625 -3.4225 13.39125 -3.125 12.5625 C-1.81642821 8.41868933 -0.88782235 4.25021337 0 0 Z " fill="#10110F" transform="translate(1260,821)"/>
<path d="M0 0 C0 4.24645065 -1.81750806 6.38524772 -4 10 C-4.99 10 -5.98 10 -7 10 C-7.33 10.66 -7.66 11.32 -8 12 C-8.33 11.34 -8.66 10.68 -9 10 C-9.99 10 -10.98 10 -12 10 C-8.04 6.7 -4.08 3.4 0 0 Z " fill="#1E1F1C" transform="translate(1390,670)"/>
<path d="M0 0 C0.33 0.66 0.66 1.32 1 2 C0.34 2.66 -0.32 3.32 -1 4 C-1.721875 4.825 -2.44375 5.65 -3.1875 6.5 C-6.54956633 9.4885034 -8.67460779 10.06707227 -13 11 C-13 10.01 -13 9.02 -13 8 C-10.91796875 6.46484375 -10.91796875 6.46484375 -8.1875 4.9375 C-7.29417969 4.43089844 -6.40085937 3.92429687 -5.48046875 3.40234375 C-4.66191406 2.93957031 -3.84335938 2.47679687 -3 2 C-2.01 1.34 -1.02 0.68 0 0 Z " fill="#1A1B16" transform="translate(1410,595)"/>
<path d="M0 0 C0.33 0.99 0.66 1.98 1 3 C-1.64 4.98 -4.28 6.96 -7 9 C-8.32 8.01 -9.64 7.02 -11 6 C-10.67 5.34 -10.34 4.68 -10 4 C-8.02 4 -6.04 4 -4 4 C-4 3.01 -4 2.02 -4 1 C-2.68 0.67 -1.36 0.34 0 0 Z " fill="#1D1E1A" transform="translate(1293,549)"/>
<path d="M0 0 C0.99 0 1.98 0 3 0 C3.21192221 5.19209404 2.5912689 9.126739 1 14 C0.67 14 0.34 14 0 14 C-1.10424872 9.58300512 -1.15088074 5.52642225 -1 1 C-0.67 0.67 -0.34 0.34 0 0 Z " fill="#11120D" transform="translate(1557,898)"/>
<path d="M0 0 C0.99 0.33 1.98 0.66 3 1 C-0.88026891 5.24404412 -5.04254346 8.10917547 -10 11 C-10.33 10.01 -10.66 9.02 -11 8 C-9.23871656 6.63343543 -7.46563912 5.28205915 -5.6875 3.9375 C-4.70136719 3.18339844 -3.71523437 2.42929687 -2.69921875 1.65234375 C-1.80847656 1.10707031 -0.91773438 0.56179688 0 0 Z " fill="#191917" transform="translate(1335,576)"/>
<path d="M0 0 C2.10827055 3.16240582 2.33817465 4.50657469 2.625 8.1875 C2.69976563 9.08855469 2.77453125 9.98960937 2.8515625 10.91796875 C2.90054687 11.60503906 2.94953125 12.29210937 3 13 C3.33 13 3.66 13 4 13 C4 14.98 4 16.96 4 19 C3.67 18.34 3.34 17.68 3 17 C2.34 17 1.68 17 1 17 C-0.53266582 13.93466836 -0.10276471 10.73245728 -0.0625 7.375 C-0.05798828 6.66859375 -0.05347656 5.9621875 -0.04882812 5.234375 C-0.03703875 3.48954725 -0.01910324 1.744763 0 0 Z " fill="#151510" transform="translate(1256,674)"/>
<path d="M0 0 C0.99 0 1.98 0 3 0 C3.32523926 3.57763189 3.42956587 5.39542581 1.3125 8.375 C-1.38790237 10.27258004 -2.77060081 10.35882213 -6 10 C-5.34 9.67 -4.68 9.34 -4 9 C-4 8.01 -4 7.02 -4 6 C-3.01 5.34 -2.02 4.68 -1 4 C-0.27617533 1.94074861 -0.27617533 1.94074861 0 0 Z " fill="#1F201D" transform="translate(1604,717)"/>
<path d="M0 0 C4.94515667 2.62711448 8.87775489 6.26645294 13 10 C11.02 10.99 11.02 10.99 9 12 C9 11.34 9 10.68 9 10 C6.525 9.01 6.525 9.01 4 8 C4.33 7.01 4.66 6.02 5 5 C4.34 5 3.68 5 3 5 C3 4.34 3 3.68 3 3 C2.01 2.67 1.02 2.34 0 2 C0 1.34 0 0.68 0 0 Z " fill="#1D1C18" transform="translate(1396,384)"/>
<path d="M0 0 C0.99 0.33 1.98 0.66 3 1 C3.625 3.875 3.625 3.875 4 7 C3.34 7.66 2.68 8.32 2 9 C1.01 8.67 0.02 8.34 -1 8 C-1.99 8.495 -1.99 8.495 -3 9 C-2.44271087 5.65626525 -1.64826111 2.96687001 0 0 Z " fill="#0E0F0A" transform="translate(1511,940)"/>
<path d="M0 0 C0.66 0 1.32 0 2 0 C2.2236337 1.41433206 2.42826476 2.83167618 2.625 4.25 C2.74101563 5.03890625 2.85703125 5.8278125 2.9765625 6.640625 C3.00319395 9.32152459 2.36592084 10.72694089 1 13 C-1 11 -1 11 -1.1875 7.0625 C-1.16190316 4.32363845 -0.88664156 2.65992468 0 0 Z " fill="#121210" transform="translate(1526,921)"/>
<path d="M0 0 C0.66 0.33 1.32 0.66 2 1 C1.01 5.62 0.02 10.24 -1 15 C-1.99 14.34 -2.98 13.68 -4 13 C-4 12.01 -4 11.02 -4 10 C-3.34 10 -2.68 10 -2 10 C-2.350625 9.4225 -2.70125 8.845 -3.0625 8.25 C-4 6 -4 6 -3.8125 3.875 C-3 2 -3 2 0 0 Z " fill="#1A1A16" transform="translate(1545,625)"/>
<path d="M0 0 C0.33 1.32 0.66 2.64 1 4 C-0.32 4.33 -1.64 4.66 -3 5 C-3 5.66 -3 6.32 -3 7 C-4.98 7.33 -6.96 7.66 -9 8 C-9.33 7.01 -9.66 6.02 -10 5 C-6.7 3.35 -3.4 1.7 0 0 Z " fill="#181915" transform="translate(1386,610)"/>
<path d="M0 0 C0.33 0 0.66 0 1 0 C1.33 4.62 1.66 9.24 2 14 C0.68 14 -0.64 14 -2 14 C-1.03644647 4.58997722 -1.03644647 4.58997722 0 0 Z " fill="#262523" transform="translate(1258,926)"/>
<path d="M0 0 C0.99 0.495 0.99 0.495 2 1 C2.44624295 3.25454769 2.78292741 5.53128164 3.0625 7.8125 C3.74495887 13.46168599 3.74495887 13.46168599 5 19 C4.67 18.34 4.34 17.68 4 17 C3.01 17 2.02 17 1 17 C0.67 11.39 0.34 5.78 0 0 Z " fill="#161712" transform="translate(1302,846)"/>
<path d="M0 0 C0.99 0.33 1.98 0.66 3 1 C3.8125 2.9375 3.8125 2.9375 4 5 C2 7 2 7 -1 9 C-1.99 6.69 -2.98 4.38 -4 2 C-3.34 1.67 -2.68 1.34 -2 1 C-1.34 1.33 -0.68 1.66 0 2 C0 1.34 0 0.68 0 0 Z " fill="#141510" transform="translate(1395,406)"/>
<path d="M0 0 C0.33 0 0.66 0 1 0 C1.33 4.29 1.66 8.58 2 13 C1.01 12.67 0.02 12.34 -1 12 C-1.33 12.99 -1.66 13.98 -2 15 C-3.125 9.25 -3.125 9.25 -2 7 C-1.34 7 -0.68 7 0 7 C0 4.69 0 2.38 0 0 Z " fill="#2A2B27" transform="translate(1353,774)"/>
<path d="M0 0 C1.32 0.33 2.64 0.66 4 1 C4 1.66 4 2.32 4 3 C4.66 3 5.32 3 6 3 C6 3.99 6 4.98 6 6 C3.25 6.75 3.25 6.75 0 7 C-2.375 5.0625 -2.375 5.0625 -4 3 C-2.68 3 -1.36 3 0 3 C0 2.01 0 1.02 0 0 Z " fill="#171815" transform="translate(1561,693)"/>
<path d="M0 0 C3.68006822 3.38168431 5.9785845 6.42521756 8 11 C7.34 11 6.68 11 6 11 C6.33 11.99 6.66 12.98 7 14 C6.34 14 5.68 14 5 14 C4.54625 12.865625 4.0925 11.73125 3.625 10.5625 C2.42904194 6.95278308 2.42904194 6.95278308 0 6 C0 4.02 0 2.04 0 0 Z " fill="#1E1E1C" transform="translate(1475,458)"/>
<path d="M0 0 C1.32 0.33 2.64 0.66 4 1 C4.33 2.98 4.66 4.96 5 7 C3.35 7.33 1.7 7.66 0 8 C0 5.36 0 2.72 0 0 Z " fill="#161612" transform="translate(1257,738)"/>
<path d="M0 0 C0 0.99 0 1.98 0 3 C-1.63064764 4.05771739 -3.30280873 5.05273046 -5 6 C-5.7734375 6.86625 -5.7734375 6.86625 -6.5625 7.75 C-7.2740625 8.36875 -7.2740625 8.36875 -8 9 C-10.08984375 8.578125 -10.08984375 8.578125 -12 8 C-10.57084149 6.65772954 -9.13137328 5.32642904 -7.6875 4 C-6.48673828 2.88625 -6.48673828 2.88625 -5.26171875 1.75 C-3 0 -3 0 0 0 Z " fill="#161713" transform="translate(1426,584)"/>
<path d="M0 0 C2.29633824 3.44450737 2.54016485 5.93812283 3 10 C1.68 10.33 0.36 10.66 -1 11 C-2.60080151 6.99799622 -1.29279692 3.95443764 0 0 Z " fill="#1F1F1B" transform="translate(1566,531)"/>
<path d="M0 0 C0.99 0.33 1.98 0.66 3 1 C2.50769231 6.53846154 2.50769231 6.53846154 -0.0625 8.875 C-1.0215625 9.431875 -1.0215625 9.431875 -2 10 C-2.66 9.67 -3.32 9.34 -4 9 C-2.68 6.03 -1.36 3.06 0 0 Z " fill="#1A1A16" transform="translate(1236,849)"/>
<path d="M0 0 C3.96 1.98 3.96 1.98 8 4 C7.01 5.32 6.02 6.64 5 8 C5 7.01 5 6.02 5 5 C4.01 5 3.02 5 2 5 C1.67 5.66 1.34 6.32 1 7 C0.34 7 -0.32 7 -1 7 C-1 6.34 -1 5.68 -1 5 C-0.34 5 0.32 5 1 5 C0.67 3.35 0.34 1.7 0 0 Z " fill="#181814" transform="translate(1530,725)"/>
<path d="M0 0 C0.33 0.99 0.66 1.98 1 3 C-2.12621626 6.39417765 -4.56541027 8.6062718 -9 10 C-9 9.01 -9 8.02 -9 7 C-7.03125 5.17578125 -7.03125 5.17578125 -4.5 3.3125 C-3.6646875 2.68988281 -2.829375 2.06726563 -1.96875 1.42578125 C-1.3190625 0.95527344 -0.669375 0.48476563 0 0 Z " fill="#1F211B" transform="translate(1294,533)"/>
<path d="M0 0 C0.33 0.66 0.66 1.32 1 2 C-0.65 3.32 -2.3 4.64 -4 6 C-4.99 5.34 -5.98 4.68 -7 4 C-7.66 3.67 -8.32 3.34 -9 3 C-5.92807025 0.26939578 -4.09590633 -0.34132553 0 0 Z " fill="#141512" transform="translate(1345,436)"/>
<path d="M0 0 C0.99 0 1.98 0 3 0 C3.66 1.65 4.32 3.3 5 5 C4.34 5 3.68 5 3 5 C2.34 6.32 1.68 7.64 1 9 C0.67 9 0.34 9 0 9 C0 6.03 0 3.06 0 0 Z " fill="#181814" transform="translate(1513,848)"/>
<path d="M0 0 C1.89213369 2.38573379 3.02391783 4.07175348 4 7 C2.68 8.32 1.36 9.64 0 11 C-1.16461426 7.50615721 -1.13568319 4.66344611 -1 1 C-0.67 0.67 -0.34 0.34 0 0 Z " fill="#181815" transform="translate(1434,708)"/>
<path d="M0 0 C0.33 0.99 0.66 1.98 1 3 C1.99 3.33 2.98 3.66 4 4 C4.33 5.98 4.66 7.96 5 10 C4.01 10.495 4.01 10.495 3 11 C1.35 7.7 -0.3 4.4 -2 1 C-1.34 0.67 -0.68 0.34 0 0 Z " fill="#1E1E1B" transform="translate(1480,689)"/>
<path d="M0 0 C1.32 1.32 2.64 2.64 4 4 C3.01 4.66 2.02 5.32 1 6 C0.67 6.99 0.34 7.98 0 9 C-2.0625 10.1875 -2.0625 10.1875 -4 11 C-3.67 9.02 -3.34 7.04 -3 5 C-2.34 5 -1.68 5 -1 5 C-0.67 3.35 -0.34 1.7 0 0 Z " fill="#161713" transform="translate(1253,668)"/>
<path d="M0 0 C0.86625 0.37125 0.86625 0.37125 1.75 0.75 C-2.875 5.625 -2.875 5.625 -6.25 6.75 C-6.25 3.75 -6.25 3.75 -4.5 1.5 C-2.25 -0.25 -2.25 -0.25 0 0 Z " fill="#181816" transform="translate(1349.25,581.25)"/>
<path d="M0 0 C0.66 0.33 1.32 0.66 2 1 C1.56268919 6.68504055 1.26826873 7.73173127 -3 12 C-2.01 8.04 -1.02 4.08 0 0 Z " fill="#2C2D28" transform="translate(1205,794)"/>
<path d="M0 0 C0.66 0.33 1.32 0.66 2 1 C2.625 3.0625 2.625 3.0625 3 5 C1.02 6.32 -0.96 7.64 -3 9 C-3.66 8.67 -4.32 8.34 -5 8 C-3.35 5.36 -1.7 2.72 0 0 Z " fill="#1F1F1B" transform="translate(1402,511)"/>
<path d="M0 0 C0.99 0.66 1.98 1.32 3 2 C3.1875 4.625 3.1875 4.625 3 7 C2.34 7 1.68 7 1 7 C0.67 7.66 0.34 8.32 0 9 C-0.66 6.69 -1.32 4.38 -2 2 C-1.34 1.34 -0.68 0.68 0 0 Z " fill="#121210" transform="translate(1511,864)"/>
<path d="M0 0 C0.99 0.33 1.98 0.66 3 1 C3 2.32 3 3.64 3 5 C1.35 5.66 -0.3 6.32 -2 7 C-2.66 6.01 -3.32 5.02 -4 4 C-3.01 4 -2.02 4 -1 4 C-0.67 2.68 -0.34 1.36 0 0 Z " fill="#161613" transform="translate(1574,770)"/>
<path d="M0 0 C3.07360743 3.07360743 3.57862333 3.89157749 4 8 C3.67 8.66 3.34 9.32 3 10 C2.01 10 1.02 10 0 10 C0 6.7 0 3.4 0 0 Z " fill="#191A15" transform="translate(1557,589)"/>
<path d="M0 0 C0.99 0.99 1.98 1.98 3 3 C2.34 5.31 1.68 7.62 1 10 C0.34 9.67 -0.32 9.34 -1 9 C-1.09765625 2.84765625 -1.09765625 2.84765625 -1 1 C-0.67 0.67 -0.34 0.34 0 0 Z " fill="#1A1A17" transform="translate(1350,485)"/>
<path d="M0 0 C1.66611905 -0.042721 3.33382885 -0.04063832 5 0 C6 1 6 1 6.0625 4.5625 C6.041875 5.696875 6.02125 6.83125 6 8 C3.33264727 5.51047079 1.44253657 3.36591866 0 0 Z " fill="#21221D" transform="translate(1374,384)"/>
<path d="M0 0 C0.33 0.99 0.66 1.98 1 3 C1.66 3 2.32 3 3 3 C3 6.96 3 10.92 3 15 C2.67 15 2.34 15 2 15 C1.67 12.03 1.34 9.06 1 6 C0.01 6.495 0.01 6.495 -1 7 C-1.04254356 5.00045254 -1.04080783 2.99958364 -1 1 C-0.67 0.67 -0.34 0.34 0 0 Z " fill="#13130F" transform="translate(1393,779)"/>
<path d="M0 0 C0.99 0.33 1.98 0.66 3 1 C2.67 2.65 2.34 4.3 2 6 C1.01 6 0.02 6 -1 6 C-1.625 4.125 -1.625 4.125 -2 2 C-1.34 1.34 -0.68 0.68 0 0 Z " fill="#181815" transform="translate(1351,644)"/>
<path d="M0 0 C0.66 0.33 1.32 0.66 2 1 C0.63842622 6.29500913 -2.60343955 8.23745533 -7 11 C-5.22054913 6.95579349 -2.60470327 3.53921513 0 0 Z " fill="#1A1A19" transform="translate(1433,571)"/>
<path d="M0 0 C-0.33 0.99 -0.66 1.98 -1 3 C-2.175625 2.9690625 -2.175625 2.9690625 -3.375 2.9375 C-5.98114961 2.81315937 -5.98114961 2.81315937 -8 4 C-8.66 3.34 -9.32 2.68 -10 2 C-8.71211992 1.46987262 -7.41953322 0.9511671 -6.125 0.4375 C-5.40570312 0.14746094 -4.68640625 -0.14257812 -3.9453125 -0.44140625 C-2 -1 -2 -1 0 0 Z " fill="#1E1F1B" transform="translate(1486,1087)"/>
<path d="M0 0 C1.32 0 2.64 0 4 0 C4.33 1.65 4.66 3.3 5 5 C1.48283697 5 0.62878252 4.17554415 -2 2 C-1.34 1.34 -0.68 0.68 0 0 Z " fill="#161714" transform="translate(1443,856)"/>
<path d="M0 0 C2.475 0.495 2.475 0.495 5 1 C4.67 2.65 4.34 4.3 4 6 C2.68 5.34 1.36 4.68 0 4 C0 2.68 0 1.36 0 0 Z " fill="#131210" transform="translate(1409,840)"/>
<path d="M0 0 C0.33 0 0.66 0 1 0 C1 5.28 1 10.56 1 16 C0.01 16.33 -0.98 16.66 -2 17 C-2 16.01 -2 15.02 -2 14 C-1.34 14 -0.68 14 0 14 C0 9.38 0 4.76 0 0 Z " fill="#44453F" transform="translate(1429,679)"/>
<path d="M0 0 C0.99 0.66 1.98 1.32 3 2 C2 5 2 5 0.0625 6.25 C-0.618125 6.4975 -1.29875 6.745 -2 7 C-2.66 6.67 -3.32 6.34 -4 6 C-4 5.34 -4 4.68 -4 4 C-2.68 3.67 -1.36 3.34 0 3 C0 2.01 0 1.02 0 0 Z " fill="#20201E" transform="translate(1357,573)"/>
<path d="M0 0 C0 3.59857954 -0.95830515 5.09451118 -3 8 C-3.66 8 -4.32 8 -5 8 C-5 8.66 -5 9.32 -5 10 C-5.66 9.67 -6.32 9.34 -7 9 C-5.03681826 5.46627288 -2.95929119 2.75520215 0 0 Z " fill="#262722" transform="translate(1272,551)"/>
<path d="M0 0 C2.475 0.99 2.475 0.99 5 2 C4.67 2.99 4.34 3.98 4 5 C2.35 5.33 0.7 5.66 -1 6 C-0.67 4.02 -0.34 2.04 0 0 Z " fill="#171714" transform="translate(1463,801)"/>
<path d="M0 0 C0.33 0 0.66 0 1 0 C1 3.63 1 7.26 1 11 C0.01 11 -0.98 11 -2 11 C-1 3.57142857 -1 3.57142857 0 0 Z " fill="#222221" transform="translate(1476,630)"/>
<path d="M0 0 C1.32 0.99 2.64 1.98 4 3 C3.34 4.32 2.68 5.64 2 7 C1.01 7 0.02 7 -1 7 C-0.67 4.69 -0.34 2.38 0 0 Z " fill="#141411" transform="translate(1498,604)"/>
<path d="M0 0 C0 0.66 0 1.32 0 2 C-2.31 3.32 -4.62 4.64 -7 6 C-7 4.68 -7 3.36 -7 2 C-2.25 0 -2.25 0 0 0 Z " fill="#1F201F" transform="translate(1304,543)"/>
<path d="M0 0 C0.99 0.33 1.98 0.66 3 1 C3.8125 2.875 3.8125 2.875 4 5 C3.01 6.485 3.01 6.485 2 8 C2 7.34 2 6.68 2 6 C1.34 6 0.68 6 0 6 C0 4.02 0 2.04 0 0 Z " fill="#181715" transform="translate(1197,841)"/>
<path d="M0 0 C2.4375 0.375 2.4375 0.375 5 1 C5.33 1.66 5.66 2.32 6 3 C5.01 4.485 5.01 4.485 4 6 C3.67 5.01 3.34 4.02 3 3 C2.34 2.67 1.68 2.34 1 2 C1 2.66 1 3.32 1 4 C0.01 3.67 -0.98 3.34 -2 3 C-1.34 2.67 -0.68 2.34 0 2 C0 1.34 0 0.68 0 0 Z " fill="#191816" transform="translate(1530,788)"/>
<path d="M0 0 C1.4540625 0.0309375 1.4540625 0.0309375 2.9375 0.0625 C1.9375 3.0625 1.9375 3.0625 -0.125 4.25 C-0.764375 4.518125 -1.40375 4.78625 -2.0625 5.0625 C-2.7225 3.7425 -3.3825 2.4225 -4.0625 1.0625 C-3.0625 0.0625 -3.0625 0.0625 0 0 Z " fill="#1A1A18" transform="translate(1426.0625,713.9375)"/>
<path d="M0 0 C0.33 0.66 0.66 1.32 1 2 C1.66 2 2.32 2 3 2 C3 3.65 3 5.3 3 7 C1.68 7 0.36 7 -1 7 C-0.67 4.69 -0.34 2.38 0 0 Z " fill="#1A1A19" transform="translate(1494,585)"/>
<path d="M0 0 C0.99 0.33 1.98 0.66 3 1 C0.525 4.465 0.525 4.465 -2 8 C-2.66 7.01 -3.32 6.02 -4 5 C-3.34 4.01 -2.68 3.02 -2 2 C-1.34 2 -0.68 2 0 2 C0 1.34 0 0.68 0 0 Z " fill="#252623" transform="translate(1337,513)"/>
<path d="M0 0 C1.485 0.99 1.485 0.99 3 2 C2.67 3.65 2.34 5.3 2 7 C1.34 7 0.68 7 0 7 C-1.125 2.25 -1.125 2.25 0 0 Z " fill="#161612" transform="translate(1479,484)"/>
<path d="M0 0 C0.66 0.33 1.32 0.66 2 1 C0.6875 3.5 0.6875 3.5 -1 6 C-1.99 6 -2.98 6 -4 6 C-3.6875 4.125 -3.6875 4.125 -3 2 C-2.01 1.34 -1.02 0.68 0 0 Z " fill="#1C1D18" transform="translate(1370,365)"/>
<path d="M0 0 C0.99 0.66 1.98 1.32 3 2 C1.35 2.66 -0.3 3.32 -2 4 C-2 4.66 -2 5.32 -2 6 C-2.66 6 -3.32 6 -4 6 C-4.33 6.66 -4.66 7.32 -5 8 C-5 5 -5 5 -2.5 2.3125 C-1.675 1.549375 -0.85 0.78625 0 0 Z " fill="#12130D" transform="translate(1518,1012)"/>
<path d="M0 0 C0.66 0 1.32 0 2 0 C1.34 2.64 0.68 5.28 0 8 C-0.33 7.34 -0.66 6.68 -1 6 C-1.66 6 -2.32 6 -3 6 C-1.125 1.125 -1.125 1.125 0 0 Z " fill="#21201C" transform="translate(1259,830)"/>
<path d="M0 0 C0.33 0.66 0.66 1.32 1 2 C1.66 2 2.32 2 3 2 C3 3.32 3 4.64 3 6 C1.68 6 0.36 6 -1 6 C-1.042721 4.33388095 -1.04063832 2.66617115 -1 1 C-0.67 0.67 -0.34 0.34 0 0 Z " fill="#171714" transform="translate(1213,805)"/>
<path d="M0 0 C3.68754757 0.49831724 5.60490662 1.10067643 8 4 C6.68 4.33 5.36 4.66 4 5 C3.71125 4.360625 3.4225 3.72125 3.125 3.0625 C2.17176549 0.84793921 2.17176549 0.84793921 0 0 Z " fill="#1A1816" transform="translate(1398,747)"/>
<path d="M0 0 C-1.75 3.875 -1.75 3.875 -4 5 C-4.99 4.67 -5.98 4.34 -7 4 C-7 3.34 -7 2.68 -7 2 C-2.25 0 -2.25 0 0 0 Z " fill="#1E1E1C" transform="translate(1306,615)"/>
<path d="M0 0 C0.66 0.33 1.32 0.66 2 1 C1.60196439 3.88575819 1.20990931 4.82189513 -1.0625 6.75 C-1.701875 7.1625 -2.34125 7.575 -3 8 C-2.45276317 4.62537285 -1.9451 2.91765 0 0 Z " fill="#131312" transform="translate(1329,520)"/>
<path d="M0 0 C0.99 0 1.98 0 3 0 C2.67 2.64 2.34 5.28 2 8 C1.34 7.67 0.68 7.34 0 7 C0 4.69 0 2.38 0 0 Z " fill="#151611" transform="translate(1380,386)"/>
<path d="M0 0 C0.66 0.66 1.32 1.32 2 2 C-0.75 7.875 -0.75 7.875 -3 9 C-2.44271087 5.65626525 -1.64826111 2.96687001 0 0 Z " fill="#22221E" transform="translate(1511,940)"/>
<path d="M0 0 C0.99 0 1.98 0 3 0 C2.67 1.32 2.34 2.64 2 4 C1.34 3.67 0.68 3.34 0 3 C0 4.98 0 6.96 0 9 C-0.33 9 -0.66 9 -1 9 C-1.09765625 2.84765625 -1.09765625 2.84765625 -1 1 C-0.67 0.67 -0.34 0.34 0 0 Z " fill="#31312D" transform="translate(1557,898)"/>
<path d="M0 0 C0.99 0 1.98 0 3 0 C3 0.66 3 1.32 3 2 C3.66 2.33 4.32 2.66 5 3 C3.02 3.99 3.02 3.99 1 5 C0.01 4.01 -0.98 3.02 -2 2 C-1.34 1.34 -0.68 0.68 0 0 Z " fill="#1A1916" transform="translate(1470,818)"/>
<path d="M0 0 C1.41377341 2.63904371 2.37240135 5.07120629 3 8 C1.68 7.67 0.36 7.34 -1 7 C-0.67 4.69 -0.34 2.38 0 0 Z " fill="#272722" transform="translate(1406,751)"/>
<path d="M0 0 C0.33 1.32 0.66 2.64 1 4 C-1.475 5.485 -1.475 5.485 -4 7 C-3.39816251 4.97954558 -2.72693904 2.97888961 -2 1 C-1.34 0.67 -0.68 0.34 0 0 Z " fill="#20211E" transform="translate(1396,748)"/>
<path d="M0 0 C0.99 0.99 1.98 1.98 3 3 C2.67 3.99 2.34 4.98 2 6 C1.34 5.67 0.68 5.34 0 5 C-0.33 5.99 -0.66 6.98 -1 8 C-2.2077558 4.37673261 -1.54311128 3.35853631 0 0 Z " fill="#272722" transform="translate(1349,716)"/>
<path d="M0 0 C1.42944945 2.35438733 2.08661261 3.48032433 1.625 6.25 C1.41875 6.8275 1.2125 7.405 1 8 C0.01 8 -0.98 8 -2 8 C-1.47731534 5.23723823 -0.89130413 2.6739124 0 0 Z " fill="#272623" transform="translate(1543,650)"/>
<path d="M0 0 C0.66 0 1.32 0 2 0 C0.99796679 3.00609963 0.39971554 4.06176821 -2 6 C-2.99 6 -3.98 6 -5 6 C-4.67 4.68 -4.34 3.36 -4 2 C-2.68 2 -1.36 2 0 2 C0 1.34 0 0.68 0 0 Z " fill="#141413" transform="translate(1389,549)"/>
<path d="M0 0 C1.4606285 2.64738916 2 3.89448334 2 7 C0.68 7.33 -0.64 7.66 -2 8 C-1.47731534 5.23723823 -0.89130413 2.6739124 0 0 Z " fill="#22221E" transform="translate(1191,982)"/>
<path d="M0 0 C-0.66 1.32 -1.32 2.64 -2 4 C-3.32 2.68 -4.64 1.36 -6 0 C-3 -1 -3 -1 0 0 Z " fill="#1A1917" transform="translate(1406,836)"/>
<path d="M0 0 C0.66 0 1.32 0 2 0 C2 2.97 2 5.94 2 9 C-1 6 -1 6 -1.25 3.375 C-1 1 -1 1 0 0 Z " fill="#1B1A17" transform="translate(1313,826)"/>
<path d="M0 0 C1.98 0.495 1.98 0.495 4 1 C4 1.99 4 2.98 4 4 C3.34 4 2.68 4 2 4 C1.34 4.66 0.68 5.32 0 6 C-1.125 2.25 -1.125 2.25 0 0 Z " fill="#10110F" transform="translate(1435,787)"/>
<path d="M0 0 C1.98 0.66 3.96 1.32 6 2 C6 2.66 6 3.32 6 4 C3.625 4.1875 3.625 4.1875 1 4 C0.34 3.01 -0.32 2.02 -1 1 C-0.67 0.67 -0.34 0.34 0 0 Z " fill="#151513" transform="translate(1549,753)"/>
<path d="M0 0 C-0.3125 1.9375 -0.3125 1.9375 -1 4 C-1.99 4.33 -2.98 4.66 -4 5 C-4.33 3.68 -4.66 2.36 -5 1 C-2 0 -2 0 0 0 Z " fill="#1B1B19" transform="translate(1197,728)"/>
<path d="M0 0 C2.475 0.99 2.475 0.99 5 2 C4.67 2.99 4.34 3.98 4 5 C2.68 4.67 1.36 4.34 0 4 C0 2.68 0 1.36 0 0 Z " fill="#151512" transform="translate(1395,677)"/>
<path d="M0 0 C1.98 0.495 1.98 0.495 4 1 C2.35 2.65 0.7 4.3 -1 6 C-0.67 4.02 -0.34 2.04 0 0 Z " fill="#121310" transform="translate(1340,656)"/>
<path d="M0 0 C0.99 0.33 1.98 0.66 3 1 C1.35 2.65 -0.3 4.3 -2 6 C-2 3 -2 3 0 0 Z M-4 6 C-3.01 6.495 -3.01 6.495 -2 7 C-2.99 7.495 -2.99 7.495 -4 8 C-4 7.34 -4 6.68 -4 6 Z " fill="#070605" transform="translate(1355,629)"/>
<path d="M0 0 C0.99 0.33 1.98 0.66 3 1 C1.35 2.65 -0.3 4.3 -2 6 C-2.66 5.67 -3.32 5.34 -4 5 C-3 2 -3 2 0 0 Z " fill="#282825" transform="translate(1335,576)"/>
<path d="M0 0 C0.99 0.66 1.98 1.32 3 2 C1.515 4.475 1.515 4.475 0 7 C-0.66 6.34 -1.32 5.68 -2 5 C-1.34 3.35 -0.68 1.7 0 0 Z " fill="#242421" transform="translate(1412,517)"/>
<path d="M0 0 C1 3 1 3 0.0625 5.1875 C-0.4634375 6.0846875 -0.4634375 6.0846875 -1 7 C-1.99 6.67 -2.98 6.34 -4 6 C-2.84826645 3.53199953 -1.95216435 1.95216435 0 0 Z " fill="#0D0D08" transform="translate(1442,433)"/>
<path d="M0 0 C0.66 0.33 1.32 0.66 2 1 C0.63016497 4.16115776 0.0109362 4.9927092 -3 7 C-2.25 2.25 -2.25 2.25 0 0 Z " fill="#1E1E1A" transform="translate(1397,408)"/>
</svg>
