<svg xmlns="http://www.w3.org/2000/svg" viewBox="0 0 64 64" width="64" height="64" fill="none">
  <g stroke="#16120f" stroke-width="4" stroke-linecap="round" stroke-linejoin="round">
    <path d="M32 6C40 13 46 21 50 31C53 40 52 49 47 56C43 61 38 64 32 64C26 64 21 61 17 56C12 49 11 40 14 31C18 21 24 13 32 6Z" />
    <path d="M32 15C38 20 42 27 45 34C47 41 46 47 42 52C39 56 36 58 32 58C28 58 25 56 22 52C18 47 17 41 19 34C22 27 26 20 32 15Z" />
    <path d="M32 26C36 30 39 35 40 40C41 45 40 49 37 52C35 54 33 55 32 55C31 55 29 54 27 52C24 49 23 45 24 40C25 35 28 30 32 26Z" />
    <path d="M22 14C19 18 17 22 16 27" />
    <path d="M42 14C45 18 47 22 48 27" />
  </g>
</svg>
